{"title":"Iron Man 3 2013 CAM XViD - JUSTiCE","uid":8425567,"size":1499127162,"categoryP":"video","categoryS":"movies","magnet":"?xt=urn:btih:7679ffa914690ee106c19180138390e1a17dff33&amp;dn=Iron+Man+3+2013+CAM+XViD+-+JUSTiCE&amp;tr=udp%3A%2F%2Ftracker.openbittorrent.com%3A80&amp;tr=udp%3A%2F%2Fopen.demonii.com%3A1337&amp;tr=udp%3A%2F%2Ftracker.coppersurfer.tk%3A6969&amp;tr=udp%3A%2F%2Fexodus.desync.com%3A6969","seeders":0,"leechers":0,"uploader":"R0thschild","files":4,"time":1367335334,"description":"--------------------------------------------\n\nIron Man 3 2013 CAM XViD - JUSTiCE\n\nSOURCE: Beowulf / MiLLENiUM\n\nVideo and audio both cleaned and given justice\nCheck sample and see\n\nVideo had plenty of faults from movement,glares,colouring bleeding etc\nSo opted to rotate and use the perspective filter to find a better balance first off\nwill be honest and say due to camera movement it doesn't stay level throughout\nOnce sorted i had to crop the odd borders this made ...only 3-5 pixel here and there\nThen to sort the noise out i had to smoother a fair bit ..more than normal,but this\nneeded to be done \nAlso lowered the sat right down to almost black and white ...and from there i used the\nrgb eq to rebuild the colours back up\n\nAudio ...MUCH better than the old source,so top work guys \nFound the audio was oos around 1hr 14mins over my encode so cut and adjusted\nFrom there we cleaned it in adobe by changing the eq bands aswell as using a hiss removal filter\n\nVideo\nID: 0\nFormat: MPEG-4 Visual\nFormat profile: Advanced Simple@L5\nFormat settings, BVOP: 2\nFormat settings, QPel: No\nFormat settings, GMC: No warppoints\nFormat settings, Matrix: Default (MPEG)\nMuxing mode: Packed bitstream\nCodec ID: XVID\nCodec ID/Hint: XviD\nDuration: 1h 58mn\nBit rate: 1 540 Kbps\nWidth: 720 pixels\nHeight: 288 pixels\nDisplay aspect ratio: 2.500\nFrame rate: 25.000 fps\nColor space: YUV\nChroma subsampling: 4:2:0\nBit depth: 8 bits\nScan type: Progressive\nCompression mode: Lossy\nBits/(Pixel*Frame): 0.297\nStream size: 1.27 GiB (92%)\nWriting library: XviD 64\n\nAudio\nID: 1\nFormat: MPEG Audio\nFormat version: Version 1\nFormat profile: Layer 3\nMode: Joint stereo\nMode extension: MS Stereo\nCodec ID: 55\nCodec ID/Hint: MP3\nDuration: 1h 58mn\nBit rate mode: Constant\nBit rate: 128 Kbps\nChannel(s): 2 channels\nSampling rate: 44.1 KHz\nCompression mode: Lossy\nStream size: 108 MiB (8%)\nAlignment: Split accross interleaves\nInterleave, duration: 40 ms (1.00 video frame)\nInterleave, preload duration: 500 ms\nscreenies below so the tone down on the glare,noise,colour bleeds and also the slight angle change\n\n--------------------------------------------\n\nMore at   &lt;a href=&quot;\nhttp://publichash.com/&quot; rel=&quot;nofollow&quot; target=&quot;_NEW&quot;&gt;\nhttp://publichash.com/&lt;/a&gt;\n\n--------------------------------------------","torrent":{"xt":"urn:btih:7679ffa914690ee106c19180138390e1a17dff33","amp;dn":"Iron+Man+3+2013+CAM+XViD+-+JUSTiCE","amp;tr":["udp%3A%2F%2Ftracker.openbittorrent.com%3A80","udp%3A%2F%2Fopen.demonii.com%3A1337","udp%3A%2F%2Ftracker.coppersurfer.tk%3A6969","udp%3A%2F%2Fexodus.desync.com%3A6969"],"infoHash":"7679ffa914690ee106c19180138390e1a17dff33","infoHashBuffer":{"type":"Buffer","data":[118,121,255,169,20,105,14,225,6,193,145,128,19,131,144,225,161,125,255,51]},"announce":[],"urlList":[]}}